<svg fill="#332b20" xmlns="http://www.w3.org/2000/svg" width="135.621" height="159.646"><path fill-rule="evenodd" clip-rule="evenodd" d="M67.637 159.646h45.176v-1.741c-1.854-.231-18.709-6.249-27.855-16.017-9.718-10.38-11.266-17.852-12.883-23.416-1.769-6.087-2.35-13.493-2.22-13.928.479 1.306 1.471 3.344 2.829 5.31 6.042 8.742 14.364 15.464 30.902 15.669 13.582.168 32.056-13.059 32.033-32.904-.021-19.185-14.311-34.219-32.729-34.384-3.073-.027-7.34.356-12.462 1.792.783-.712 1.896-1.828 2.799-3.011 1.2-1.57 8.618-9.778 8.618-23.938 0-13.115-11.026-33.12-34.297-33.079-23.618.043-34.47 21.067-34.47 33.254 0 14.159 6.833 22.059 8.27 23.416 1.251 1.182 2.19 2.299 2.973 3.01-1.272-.303-2.198-.692-3.408-.921C23.024 55.376-.067 65.681 0 93.315c.049 20.311 19.729 32.382 32.729 32.382 14.973 0 23.642-6.578 29.684-15.843 1.306-2.002 2.351-3.917 2.829-5.223.131.436-.764 7.671-2.22 13.841-1.942 8.231-4.979 14.823-13.231 23.416-10.568 11.007-24.019 15.319-27.507 16.017v1.741H67.637z"/></svg>