<svg fill="#332b20" xmlns="http://www.w3.org/2000/svg" width="133.011" height="159.646"><path fill-rule="evenodd" clip-rule="evenodd" d="M66.506 159.646h43.176v-2.089c-33.079-10.446-40.902-38.92-41.522-50.14-.24-4.349.983-2.584 1.828-.783 8.833 18.839 29.149 18.889 32.034 18.889 10.911 0 31.143-10.737 30.989-32.382-.174-24.457-20.169-28.593-42.507-56.04C80.199 24.442 68.907 7.548 66.506 0c-2.402 7.548-13.693 24.442-23.998 37.102C20.171 64.549.175 68.685.001 93.142c-.154 21.645 20.08 32.382 30.989 32.382 2.885 0 23.202-.05 32.034-18.889.844-1.801 2.068-3.566 1.828.783-.619 11.22-8.443 39.694-41.522 50.14v2.089h43.176z"/></svg>